<?xml version="1.0" standalone="no"?><!DOCTYPE svg PUBLIC "-//W3C//DTD SVG 1.1//EN" "http://www.w3.org/Graphics/SVG/1.1/DTD/svg11.dtd"><svg class="icon" width="200px" height="200.00px" viewBox="0 0 1024 1024" version="1.1" xmlns="http://www.w3.org/2000/svg"><path fill="#333333" d="M512 51.2C257.536 51.2 51.2 234.5984 51.2 460.8c0 130.048 68.352 245.6576 174.6944 320.7168L153.6 972.8l265.6768-110.6944C449.2288 867.5328 480.256 870.4 512 870.4c254.5152 0 460.8-183.3984 460.8-409.6s-206.2848-409.6-460.8-409.6z m-204.8 460.8a51.2 51.2 0 1 1 0-102.4 51.2 51.2 0 0 1 0 102.4z m204.8 0a51.2 51.2 0 1 1 0-102.4 51.2 51.2 0 0 1 0 102.4z m204.8 0a51.2 51.2 0 1 1 0-102.4 51.2 51.2 0 0 1 0 102.4z"  /></svg>