<?xml version="1.0" standalone="no"?><!DOCTYPE svg PUBLIC "-//W3C//DTD SVG 1.1//EN" "http://www.w3.org/Graphics/SVG/1.1/DTD/svg11.dtd"><svg class="icon" width="200px" height="200.00px" viewBox="0 0 1024 1024" version="1.1" xmlns="http://www.w3.org/2000/svg"><path fill="#333333" d="M804.5568 438.8352V292.5568a292.5568 292.5568 0 1 0-585.1136 0v146.2784a146.2784 146.2784 0 0 0-146.2784 146.2784v292.5568A146.2272 146.2272 0 0 0 219.4432 1024h585.1648a146.2784 146.2784 0 0 0 146.2784-146.2784v-292.5568a146.432 146.432 0 0 0-146.3296-146.3296zM512 146.2784a146.2784 146.2784 0 0 1 146.2784 146.2784v146.2784H365.7216V292.5568A146.2784 146.2784 0 0 1 512 146.2784z"  /></svg>