<?xml version="1.0" standalone="no"?><!DOCTYPE svg PUBLIC "-//W3C//DTD SVG 1.1//EN" "http://www.w3.org/Graphics/SVG/1.1/DTD/svg11.dtd"><svg class="icon" width="200px" height="200.00px" viewBox="0 0 1024 1024" version="1.1" xmlns="http://www.w3.org/2000/svg"><path fill="#333333" d="M365.7216 0H73.1136A73.216 73.216 0 0 0 0 73.1648v292.5568c0 40.3968 32.768 73.1648 73.1136 73.1648h292.5568a73.216 73.216 0 0 0 73.1648-73.1648V73.1648C438.8352 32.768 406.1184 0 365.7216 0z m0 585.1648H73.1136C32.768 585.1648 0 617.8816 0 658.2784v292.5568C0 991.232 32.768 1024 73.1136 1024h292.5568a73.216 73.216 0 0 0 73.1648-73.1648v-292.5568c0-40.3968-32.7168-73.1136-73.1136-73.1136z m292.5568-438.8864h292.5568a73.1136 73.1136 0 1 0 0-146.2784h-292.5568a73.216 73.216 0 0 0 0 146.2784z m292.5568 438.8864h-292.5568a73.216 73.216 0 0 0 0 146.3296h292.5568a73.216 73.216 0 0 0 0-146.3296z m0-292.608h-292.5568a73.216 73.216 0 0 0 0 146.3296h292.5568a73.216 73.216 0 0 0 0-146.3296z m0 585.1648h-292.5568a73.216 73.216 0 0 0 0 146.2784h292.5568a73.216 73.216 0 0 0 0-146.2784z"  /></svg>