<svg xmlns="http://www.w3.org/2000/svg">
    <symbol id="edit" viewBox="0 0 1024 1024">
      <path fill="#333333" d="M146.0736 725.9136l152.0128 152.0128 506.6752-506.624-152.0128-152.0128-506.6752 506.624z m-72.96 224.9728h146.2784l-146.2784-146.2784v146.2784zM930.9696 142.6944l-49.664-49.664a70.2464 70.2464 0 0 0-99.2768 0l-49.664 49.664 148.9408 148.9408 49.664-49.664a70.144 70.144 0 0 0 0-99.2768z"/>
    </symbol>
    <symbol id="message" viewBox="0 0 1024 1024">
      <path fill="#333333" d="M512 51.2C257.536 51.2 51.2 234.5984 51.2 460.8c0 130.048 68.352 245.6576 174.6944 320.7168L153.6 972.8l265.6768-110.6944C449.2288 867.5328 480.256 870.4 512 870.4c254.5152 0 460.8-183.3984 460.8-409.6s-206.2848-409.6-460.8-409.6z m-204.8 460.8a51.2 51.2 0 1 1 0-102.4 51.2 51.2 0 0 1 0 102.4z m204.8 0a51.2 51.2 0 1 1 0-102.4 51.2 51.2 0 0 1 0 102.4z m204.8 0a51.2 51.2 0 1 1 0-102.4 51.2 51.2 0 0 1 0 102.4z"/>
    </symbol>
    <symbol id="non-editable" viewBox="0 0 1024 1024">
      <path fill="#333333" d="M804.5568 438.8352V292.5568a292.5568 292.5568 0 1 0-585.1136 0v146.2784a146.2784 146.2784 0 0 0-146.2784 146.2784v292.5568A146.2272 146.2272 0 0 0 219.4432 1024h585.1648a146.2784 146.2784 0 0 0 146.2784-146.2784v-292.5568a146.432 146.432 0 0 0-146.3296-146.3296zM512 146.2784a146.2784 146.2784 0 0 1 146.2784 146.2784v146.2784H365.7216V292.5568A146.2784 146.2784 0 0 1 512 146.2784z"/>
    </symbol>
    <symbol id="position" viewBox="0 0 1024 1024">
      <path fill="#333333" d="M548.5568 0a329.216 329.216 0 0 0-329.1648 329.1648c0 38.656 7.8848 75.264 20.1728 109.7216l308.992 513.024 308.992-513.024a326.6048 326.6048 0 0 0 20.1728-109.7216A329.1648 329.1648 0 0 0 548.5568 0z m0 512a182.8352 182.8352 0 1 1 0-365.7216 182.8352 182.8352 0 0 1 0 365.7216z"/>
    </symbol>
    <symbol id="table" viewBox="0 0 1024 1024">
      <path fill="#333333" d="M365.7216 0H73.1136A73.216 73.216 0 0 0 0 73.1648v292.5568c0 40.3968 32.768 73.1648 73.1136 73.1648h292.5568a73.216 73.216 0 0 0 73.1648-73.1648V73.1648C438.8352 32.768 406.1184 0 365.7216 0z m0 585.1648H73.1136C32.768 585.1648 0 617.8816 0 658.2784v292.5568C0 991.232 32.768 1024 73.1136 1024h292.5568a73.216 73.216 0 0 0 73.1648-73.1648v-292.5568c0-40.3968-32.7168-73.1136-73.1136-73.1136z m292.5568-438.8864h292.5568a73.1136 73.1136 0 1 0 0-146.2784h-292.5568a73.216 73.216 0 0 0 0 146.2784z m292.5568 438.8864h-292.5568a73.216 73.216 0 0 0 0 146.3296h292.5568a73.216 73.216 0 0 0 0-146.3296z m0-292.608h-292.5568a73.216 73.216 0 0 0 0 146.3296h292.5568a73.216 73.216 0 0 0 0-146.3296z m0 585.1648h-292.5568a73.216 73.216 0 0 0 0 146.2784h292.5568a73.216 73.216 0 0 0 0-146.2784z"/>
    </symbol></svg>